<svg width="13" height="13" viewBox="0 0 13 13" fill="none" xmlns="http://www.w3.org/2000/svg">
<path fill-rule="evenodd" clip-rule="evenodd" d="M12.526 10.2661C13.1544 10.8945 13.1587 11.902 12.5304 12.5325C11.9085 13.1544 10.8967 13.1587 10.2661 12.5282L6.49824 8.76245L2.73249 12.5282C2.10198 13.1544 1.09663 13.1587 0.468281 12.5325C-0.155732 11.9063 -0.157899 10.8988 0.472614 10.2661L4.23836 6.5004L0.472614 2.73466C-0.151399 2.10848 -0.157899 1.10096 0.468281 0.470447C1.09229 -0.155732 2.09981 -0.157899 2.73249 0.470447L6.49824 4.23619L10.2661 0.470447C10.8923 -0.153565 11.9042 -0.157899 12.5304 0.470447C13.1544 1.09446 13.1587 2.09981 12.526 2.73466L8.76245 6.5004L12.526 10.2661Z" fill="#959595"/>
</svg>
