<svg width="275" height="114" viewBox="0 0 275 114" fill="none" xmlns="http://www.w3.org/2000/svg">
<path d="M3 13.2292L20.5 28.8976L28.45 10.8555L32 30.322L51 23.6748" stroke="#00CCFF" stroke-width="0.6546" stroke-miterlimit="10" stroke-linecap="round" stroke-linejoin="round"/>
<path d="M80.5 10.8555V28.8976L100.5 13.2292L96.5 32.2212L113.5 26.5236" stroke="#00CCFF" stroke-width="0.6546" stroke-miterlimit="10" stroke-linecap="round" stroke-linejoin="round"/>
<path d="M37.7694 49.3427L55.5 48.3646L37 36.9695L51 24.1499" stroke="#00CCFF" stroke-width="0.6546" stroke-miterlimit="10" stroke-linecap="round" stroke-linejoin="round"/>
<path d="M97 48.8394L115.5 48.3646L98.5 41.2427L113.5 26.5239" stroke="#00CCFF" stroke-width="0.6546" stroke-miterlimit="10" stroke-linecap="round" stroke-linejoin="round"/>
<path d="M20 98.6933L7 104.391L20 87.7729L2 93.6133" stroke="#00CCFF" stroke-width="0.6546" stroke-miterlimit="10" stroke-linecap="round" stroke-linejoin="round"/>
<path d="M20 79.7014L2 77.7549L20 87.2981" stroke="#00CCFF" stroke-width="0.6546" stroke-miterlimit="10" stroke-linecap="round" stroke-linejoin="round"/>
<path d="M20 79.2266L2 49.3716H20V79.2266Z" stroke="#00CCFF" stroke-width="0.6546" stroke-miterlimit="10" stroke-linecap="round" stroke-linejoin="round"/>
<path d="M20.5 29.3726L2 34.9754L20 49.3141" stroke="#00CCFF" stroke-width="0.6546" stroke-miterlimit="10" stroke-linecap="round" stroke-linejoin="round"/>
<path d="M33 78.2768L27.9998 60.2345L47 70.6801" stroke="#00CCFF" stroke-width="0.6546" stroke-miterlimit="10" stroke-linecap="round" stroke-linejoin="round"/>
<path d="M81 71.1548L88.5 54.062L103 67.8312" stroke="#00CCFF" stroke-width="0.6546" stroke-miterlimit="10" stroke-linecap="round" stroke-linejoin="round"/>
<path d="M38 50.0299L47.5 70.6802" stroke="#00CCFF" stroke-width="0.6546" stroke-miterlimit="10" stroke-linecap="round" stroke-linejoin="round"/>
<path d="M97 48.8393L103 67.3564" stroke="#00CCFF" stroke-width="0.6546" stroke-miterlimit="10" stroke-linecap="round" stroke-linejoin="round"/>
<path d="M235.5 11.8052L218 25.1218H235.5L227 34.9753L218 44.8289L235.5 53.5874L218.574 61.1036L235.5 69.7306" stroke="#00CCFF" stroke-width="0.6546" stroke-miterlimit="10" stroke-linecap="round" stroke-linejoin="round"/>
<path d="M235.5 69.7305L218 83.0471L235.5 84.924M235.5 84.924L243.5 104.391M235.5 84.924L228 93.4704L217.5 104.391" stroke="#00CCFF" stroke-width="0.6546" stroke-miterlimit="10" stroke-linecap="round" stroke-linejoin="round"/>
<path d="M148.5 12.0002L169 23.2003L151.286 26.1091L172.5 41.7175L156.591 52.6977L175.5 56.911L159.685 68.1996" stroke="#00CCFF" stroke-width="0.6546" stroke-miterlimit="10" stroke-linecap="round" stroke-linejoin="round"/>
<path d="M103 67.8313L86 72.1045L111.787 84.4234L99.0931 98.6878L118.514 98.5001L109 104.391" stroke="#00CCFF" stroke-width="0.6546" stroke-miterlimit="10" stroke-linecap="round" stroke-linejoin="round"/>
<path d="M160 68.3892L180.058 79.2485L162.787 82.3561L181 99.6428L167.5 103.916" stroke="#00CCFF" stroke-width="0.6546" stroke-miterlimit="10" stroke-linecap="round" stroke-linejoin="round"/>
<path d="M213 12.5L193.5 23.6751L211.088 26.5999L189.874 42.2083L205.5 53.1126L186.874 57.4018L202 68.3061" stroke="#00CCFF" stroke-width="0.6546" stroke-miterlimit="10" stroke-linecap="round" stroke-linejoin="round"/>
<path d="M202 68.3062L182.316 79.7392L199.587 82.8468L181 99.6427L194.874 104.407" stroke="#00CCFF" stroke-width="0.6546" stroke-miterlimit="10" stroke-linecap="round" stroke-linejoin="round"/>
<path d="M80.5 72.5791V54.062M181 99.6426L181.5 83.0247" stroke="#00CCFF" stroke-width="0.6546" stroke-miterlimit="10" stroke-linecap="round" stroke-linejoin="round"/>
<path d="M81 10.3809L62 22.852L80.5 35.2086H62L80.5 49.3143L62 61.9057L80.5 76.3778L62 84.683L80.298 103.916" stroke="#00CCFF" stroke-width="0.6546" stroke-miterlimit="10" stroke-linecap="round" stroke-linejoin="round"/>
<path d="M144 12L126 23.6876L144 35.9168H126L144 50.1477L126 62.3387L144 76.6458L126 84.8812L143.5 104.391" stroke="#00CCFF" stroke-width="0.6546" stroke-miterlimit="10" stroke-linecap="round" stroke-linejoin="round"/>
<path d="M265.611 11.5858L260 30.7969L250 11.5858M250 11.5858L235.5 30.7969L235.5 11.586L250 11.5858Z" stroke="#00CCFF" stroke-width="0.6546" stroke-miterlimit="10" stroke-linecap="round" stroke-linejoin="round"/>
<path d="M235.5 85.1149L243.5 104.326L251.647 85.1146M251.647 85.1146L266.147 104.326L266.147 85.1148L251.647 85.1146Z" stroke="#00CCFF" stroke-width="0.6546" stroke-miterlimit="10" stroke-linecap="round" stroke-linejoin="round"/>
<path d="M235.5 47.1309L235.5 66.3418L251.5 47.1309L260.5 65.9998" stroke="#00CCFF" stroke-width="0.6546" stroke-miterlimit="10" stroke-linecap="round" stroke-linejoin="round"/>
<path d="M1.25 103.916V104.666H2H19.6743H20.4243V103.916V78.965C21.0928 79.0164 21.7099 79.0572 22.2755 79.0872C23.0708 79.1295 23.9818 79.1504 25.0071 79.1504C34.8764 79.1504 42.5349 76.2445 47.8593 70.3363C53.2094 64.4372 55.8238 55.8464 55.8238 44.69C55.8238 32.8853 53.1478 24.0858 47.6364 18.464C42.1654 12.8487 34.0329 10.1055 23.3819 10.1055C19.4886 10.1055 15.7449 10.3767 12.1512 10.9203C8.56668 11.4213 5.11599 12.1312 1.79963 13.0506L1.25 13.203V13.7733V103.916ZM34.1707 32.6774L34.1743 32.6819C36.111 35.0875 37.1573 39.1164 37.1573 44.9383C37.1573 50.6778 36.1107 54.5917 34.1875 56.8684C32.2723 59.0944 29.3464 60.2675 25.261 60.2675C24.1606 60.2675 23.1802 60.2472 22.3188 60.2071C21.6976 60.1459 21.0662 60.0618 20.4243 59.9545V29.3945C21.0347 29.2639 21.623 29.1688 22.1895 29.1085C22.9687 29.0292 23.9233 28.9883 25.0579 28.9883C29.2693 28.9883 32.2534 30.2582 34.1707 32.6774ZM61.9579 103.916V104.666H62.7079H80.1283H80.8783V103.916V72.0496C81.537 72.0872 82.1778 72.1353 82.8006 72.1939L82.8188 72.1956L82.8369 72.1964C83.6384 72.2327 84.5763 72.2532 85.6494 72.2581L101.601 104.251L101.808 104.666H102.272H121.114H122.341L121.782 103.574L103.51 67.8812C107.339 65.5375 110.365 62.3094 112.581 58.2099C115.127 53.5612 116.379 47.8632 116.379 41.1513C116.379 30.8929 113.758 23.0898 108.381 17.8911C103.009 12.6562 95 10.1055 84.4961 10.1055C81.7668 10.1055 79.1535 10.2305 76.6567 10.4811C74.1612 10.6902 71.7322 11.0248 69.3701 11.4851C67.0186 11.9433 64.7342 12.4643 62.5169 13.048L61.9579 13.1952V13.7733V103.916ZM96.8142 33.8235L96.8141 33.8235L96.8185 33.8329C97.7062 35.7319 98.17 38.1603 98.17 41.1513C98.17 45.9075 97.0853 49.1102 95.1055 50.9721C93.125 52.8251 90.1721 53.811 86.1213 53.811H86.1165H86.1118H86.107H86.1023H86.0975H86.0928H86.088H86.0833H86.0785H86.0738H86.069H86.0643H86.0596H86.0548H86.0501H86.0454H86.0406H86.0359H86.0312H86.0265H86.0217H86.017H86.0123H86.0076H86.0029H85.9982H85.9935H85.9887H85.984H85.9793H85.9746H85.9699H85.9652H85.9605H85.9558H85.9511H85.9465H85.9418H85.9371H85.9324H85.9277H85.923H85.9184H85.9137H85.909H85.9043H85.8997H85.895H85.8903H85.8857H85.881H85.8763H85.8717H85.867H85.8624H85.8577H85.8531H85.8484H85.8438H85.8391H85.8345H85.8298H85.8252H85.8205H85.8159H85.8113H85.8066H85.802H85.7974H85.7928H85.7881H85.7835H85.7789H85.7743H85.7697H85.765H85.7604H85.7558H85.7512H85.7466H85.742H85.7374H85.7328H85.7282H85.7236H85.719H85.7144H85.7098H85.7052H85.7006H85.696H85.6915H85.6869H85.6823H85.6777H85.6731H85.6686H85.664H85.6594H85.6549H85.6503H85.6457H85.6412H85.6366H85.632H85.6275H85.6229H85.6184H85.6138H85.6093H85.6047H85.6002H85.5956H85.5911H85.5866H85.582H85.5775H85.573H85.5684H85.5639H85.5594H85.5548H85.5503H85.5458H85.5413H85.5368H85.5322H85.5277H85.5232H85.5187H85.5142H85.5097H85.5052H85.5007H85.4962H85.4917H85.4872H85.4827H85.4782H85.4737H85.4692H85.4647H85.4602H85.4557H85.4513H85.4468H85.4423H85.4378H85.4334H85.4289H85.4244H85.42H85.4155H85.411H85.4066H85.4021H85.3976H85.3932H85.3887H85.3843H85.3798H85.3754H85.3709H85.3665H85.3621H85.3576H85.3532H85.3487H85.3443H85.3399H85.3354H85.331H85.3266H85.3222H85.3177H85.3133H85.3089H85.3045H85.3001H85.2956H85.2912H85.2868H85.2824H85.278H85.2736H85.2692H85.2648H85.2604H85.256H85.2516H85.2472H85.2428H85.2384H85.2341H85.2297H85.2253H85.2209H85.2165H85.2122H85.2078H85.2034H85.199H85.1947H85.1903H85.1859H85.1816H85.1772H85.1728H85.1685H85.1641H85.1598H85.1554H85.1511H85.1467H85.1424H85.138H85.1337H85.1294H85.125H85.1207H85.1163H85.112H85.1077H85.1034H85.099H85.0947H85.0904H85.0861H85.0817H85.0774H85.0731H85.0688H85.0645H85.0602H85.0559H85.0516H85.0473H85.043H85.0387H85.0344H85.0301H85.0258H85.0215H85.0172H85.0129H85.0086H85.0043H85.0001H84.9958H84.9915H84.9872H84.983H84.9787H84.9744H84.9701H84.9659H84.9616H84.9574H84.9531H84.9488H84.9446H84.9403H84.9361H84.9318H84.9276H84.9233H84.9191H84.9148H84.9106H84.9063H84.9021H84.8979H84.8936H84.8894H84.8852H84.881H84.8767H84.8725H84.8683H84.8641H84.8598H84.8556H84.8514H84.8472H84.843H84.8388H84.8346H84.8304H84.8262H84.822H84.8178H84.8136H84.8094H84.8052H84.801H84.7968H84.7926H84.7884H84.7843H84.7801H84.7759H84.7717H84.7675H84.7634H84.7592H84.755H84.7509H84.7467H84.7425H84.7384H84.7342H84.73H84.7259H84.7217H84.7176H84.7134H84.7093H84.7051H84.701H84.6969H84.6927H84.6886H84.6844H84.6803H84.6762H84.672H84.6679H84.6638H84.6597H84.6555H84.6514H84.6473H84.6432H84.6391H84.635H84.6308H84.6267H84.6226H84.6185H84.6144H84.6103H84.6062H84.6021H84.598H84.5939H84.5898H84.5857H84.5817H84.5776H84.5735H84.5694H84.5653H84.5612H84.5572H84.5531H84.549H84.545H84.5409H84.5368H84.5328H84.5287H84.5246H84.5206H84.5165H84.5125H84.5084H84.5043H84.5003H84.4963H84.4922H84.4882H84.4841H84.4801H84.476H84.472H84.468H84.4639H84.4599H84.4559H84.4519H84.4478H84.4438H84.4398H84.4358H84.4318H84.4277H84.4237H84.4197H84.4157H84.4117H84.4077H84.4037H84.3997H84.3957H84.3917H84.3877H84.3837H84.3797H84.3757H84.3717H84.3678H84.3638H84.3598H84.3558H84.3518H84.3479H84.3439H84.3399H84.3359H84.332H84.328H84.324H84.3201H84.3161H84.3122H84.3082H84.3043H84.3003H84.2963H84.2924H84.2885H84.2845H84.2806H84.2766H84.2727H84.2688H84.2648H84.2609H84.257H84.253H84.2491H84.2452H84.2412H84.2373H84.2334H84.2295H84.2256H84.2217H84.2178H84.2138H84.2099H84.206H84.2021H84.1982H84.1943H84.1904H84.1865H84.1826H84.1787H84.1748H84.171H84.1671H84.1632H84.1593H84.1554H84.1515H84.1477H84.1438H84.1399H84.136H84.1322H84.1283H84.1244H84.1206H84.1167H84.1129H84.109H84.1051H84.1013H84.0974H84.0936H84.0897H84.0859H84.0821H84.0782H84.0744H84.0705H84.0667H84.0629H84.059H84.0552H84.0514H84.0475H84.0437H84.0399H84.0361H84.0323H84.0284H84.0246H84.0208H84.017H84.0132H84.0094H84.0056H84.0018H83.998H83.9942H83.9904H83.9866H83.9828H83.979H83.9752H83.9714H83.9676H83.9639H83.9615C83.3363 53.7707 82.7272 53.7305 82.1341 53.6902C81.73 53.6354 81.3114 53.5807 80.8783 53.5259V28.8948C81.6414 28.7297 82.4267 28.6152 83.2346 28.5515L83.2492 28.5503L83.2637 28.5486C84.2761 28.4288 85.4812 28.3675 86.8831 28.3675C89.4022 28.3675 91.4552 28.8277 93.0781 29.7052L93.0834 29.708C94.7167 30.5744 95.9614 31.9319 96.8142 33.8235ZM181.322 83.1579L167.467 13.4986C167.211 12.2118 166.082 11.285 164.77 11.285H150.738C148.994 11.285 147.691 12.8873 148.046 14.5946L166.311 102.476C166.576 103.751 167.7 104.666 169.003 104.666H192.718C194.021 104.666 195.145 103.751 195.41 102.476L213.675 14.5946C214.03 12.8873 212.727 11.285 210.983 11.285H198.213C196.906 11.285 195.779 12.2052 195.518 13.486L181.322 83.1579ZM235.922 84.7277V66.9823H258.312C259.831 66.9823 261.062 65.7511 261.062 64.2323V49.732C261.062 48.2132 259.831 46.982 258.312 46.982H235.922V31.2233H263.492C265.011 31.2233 266.242 29.9921 266.242 28.4733V14.035C266.242 12.5162 265.011 11.285 263.492 11.285H219.751C218.232 11.285 217.001 12.5162 217.001 14.035V101.916C217.001 103.435 218.232 104.666 219.751 104.666H264C265.519 104.666 266.75 103.435 266.75 101.916V87.4777C266.75 85.9589 265.519 84.7277 264 84.7277H235.922ZM125.542 101.916C125.542 103.435 126.774 104.666 128.292 104.666H141.967C143.486 104.666 144.717 103.435 144.717 101.916V14.035C144.717 12.5162 143.486 11.285 141.967 11.285H128.292C126.774 11.285 125.542 12.5162 125.542 14.035V101.916Z" stroke="#00CCFF" stroke-width="1.5"/>
</svg>
