<svg width="18" height="18" viewBox="0 0 18 18" fill="none" xmlns="http://www.w3.org/2000/svg">
<path d="M8.955 18C4.05 18 0 13.9749 0 9C0 4.02512 4.005 0 8.955 0C12.69 0 15.885 2.35175 17.19 6.01507L15.975 6.46733C14.85 3.3015 12.15 1.31156 8.955 1.31156C4.725 1.31156 1.305 4.74874 1.305 9C1.305 13.2513 4.725 16.6884 8.955 16.6884C11.7091 16.6884 14.2697 15.1717 15.6322 12.7875C15.81 12.4763 16.1935 12.3333 16.5186 12.4841C16.8409 12.6336 16.9852 13.0158 16.8169 13.3287C15.2686 16.2058 12.2507 18 8.955 18Z" fill="white"/>
<path d="M13.6363 6.91974C13.1895 6.91974 12.967 6.3785 13.2846 6.0643L15.2999 4.0705L17.1455 2.21566C17.4601 1.89946 17.9999 2.12227 17.9999 2.56833V6.41974C17.9999 6.69589 17.7761 6.91974 17.4999 6.91974H13.6363Z" fill="white"/>
</svg>
