<svg width="58" height="58" viewBox="0 0 58 58" fill="none" xmlns="http://www.w3.org/2000/svg">
<g filter="url(#filter0_d)">
<path d="M29 50C42.8071 50 54 38.8071 54 25C54 11.1929 42.8071 0 29 0C15.1929 0 4 11.1929 4 25C4 38.8071 15.1929 50 29 50Z" fill="#E5E5E5"/>
<path d="M52.9865 32.0615C49.9388 42.4296 40.3542 49.9988 28.9998 49.9988C28.0079 49.9988 27.0306 49.9392 26.068 49.8266L15.5558 39.3143L32.8346 39.3752L32.6139 26.3612L32.1624 24.6308L33.3029 12.3779L52.9865 32.0615Z" fill="#C4C4C4"/>
<path d="M22.1286 27.8969H22.6093L25.4252 26.3611L25.8834 24.5699C24.0685 23.1806 22.8447 20.7487 22.8447 18.5893V16.5931C22.8447 13.3439 25.6132 10.6846 28.9998 10.6846C32.3853 10.6846 35.1561 13.3439 35.1561 16.5931V18.5893C35.1561 20.7487 33.9311 23.1806 32.1162 24.5688L32.5744 26.3611H32.6139L35.3508 27.8969H35.871C39.4873 27.8969 42.445 30.7431 42.445 34.2051V39.3143H15.5558V34.2051C15.5558 30.7352 18.5123 27.8969 22.1286 27.8969Z" fill="#F9F9F9"/>
<path d="M26.5295 11.1845C27.2872 10.8636 28.1227 10.6846 28.9997 10.6846C32.3852 10.6846 35.156 13.3439 35.156 16.5931V18.5893C35.156 20.7487 33.931 23.1806 32.1161 24.5688L32.5743 26.3611H32.6138L35.3507 27.8969H35.8709C39.4872 27.8969 42.4449 30.7431 42.4449 34.2051V39.3143H41.2154V34.5833C41.2154 31.1213 38.2578 28.2751 34.6415 28.2751H34.1214L31.3844 26.7394H31.345L30.8868 24.947C32.7017 23.5589 33.9255 21.1269 33.9255 18.9675V16.9713C33.9255 13.7221 31.1558 11.0628 27.7703 11.0628H27.7692C27.3457 11.0629 26.9303 11.1045 26.5295 11.1845Z" fill="#EAEAED"/>
</g>
<defs>
<filter id="filter0_d" x="0" y="0" width="58" height="58" filterUnits="userSpaceOnUse" color-interpolation-filters="sRGB">
<feFlood flood-opacity="0" result="BackgroundImageFix"/>
<feColorMatrix in="SourceAlpha" type="matrix" values="0 0 0 0 0 0 0 0 0 0 0 0 0 0 0 0 0 0 127 0"/>
<feOffset dy="4"/>
<feGaussianBlur stdDeviation="2"/>
<feColorMatrix type="matrix" values="0 0 0 0 0 0 0 0 0 0 0 0 0 0 0 0 0 0 0.25 0"/>
<feBlend mode="normal" in2="BackgroundImageFix" result="effect1_dropShadow"/>
<feBlend mode="normal" in="SourceGraphic" in2="effect1_dropShadow" result="shape"/>
</filter>
</defs>
</svg>
